<?xml version="1.0" encoding="utf-8"?>
<svg version="1.1" xmlns:xlink="http://www.w3.org/1999/xlink" width="39px" height="39px" xmlns="http://www.w3.org/2000/svg">
  <g transform="matrix(1 0 0 1 -117 -195 )">
    <path d="M 5.6663169026548665 24.986744336283188  C 3.6258061858407085 19.84610601769912  4.629926761061948 14.181718407079646  7.966820256637168 10.104185575221242  L 7.934545181946902 12.383160584070797  L 12.523020465132745 12.47998764424779  L 12.696950214690267 2.3690098566371702  L 2.587808533274336 2.1968749008849575  L 2.492776266902655 6.785350184070798  L 4.725160081061947 6.8158327600884965  C 0.10459884212389277 12.180935060973454  -1.333531334867257 19.792513291061947  1.3990078067256635 26.681124706991156  C 4.389841187256637 34.22293090168142  11.610512408495577 38.96742930876106  19.44976780672566 38.96742930876106  C 20.773049541238937 38.96742930876106  22.11427921380531 38.83115350699115  23.455508886371675 38.55323129283186  L 22.51771764743363 34.05977450522124  C 15.42621649699115 35.5372891600885  8.337928532389379 31.723421177787614  5.666394019115042 24.986655744159297  Z M 37.59895778761062 12.316693539823008  C 34.10246076106195 3.505678938053097  24.827003097345134 -1.4862347787610626  15.545945309734515 0.4467260176991142  L 16.481946345132744 4.940182805309733  C 23.57344749557522 3.462668150442476  30.661735460176995 7.276536132743361  33.33326997345133 14.009629353982296  C 35.37557089380531 19.153939884955747  34.36966011504425 24.823835814159285  31.029186212389387 28.900909619469022  L 31.05787537168142 26.602196469026545  L 26.46760988495576 26.516128991150435  L 26.311614302654878 36.625270672566366  L 36.4207559840708 36.781266254867255  L 36.50682346194691 32.19279097168141  L 34.29059738230089 32.164101812389376  C 38.89876490442478 26.8026717238938  40.331386762831855 19.20027402477875  37.59880171858407 12.31671190088495  Z " fill-rule="nonzero" fill="#d7d7d7" stroke="none" transform="matrix(1 0 0 1 117 195 )" />
  </g>
</svg>