<?xml version="1.0" encoding="utf-8"?>
<svg version="1.1" xmlns:xlink="http://www.w3.org/1999/xlink" width="14px" height="14px" viewBox="613 67  14 14" xmlns="http://www.w3.org/2000/svg">
  <path d="M 620 67  C 623.92 67  627 70.08  627 74  C 627 77.92  623.92 81  620 81  C 616.08 81  613 77.92  613 74  C 613 70.08  616.08 67  620 67  Z " fill-rule="nonzero" fill="#f7941d" stroke="none" />
  <path d="M 620 67.5  C 623.64 67.5  626.5 70.36  626.5 74  C 626.5 77.64  623.64 80.5  620 80.5  C 616.36 80.5  613.5 77.64  613.5 74  C 613.5 70.36  616.36 67.5  620 67.5  Z " stroke-width="1" stroke="#797979" fill="none" />
  <path d="M 620 77.5  C 618.04 77.5  616.5 75.96  616.5 74  C 616.5 72.04  618.04 70.5  620 70.5  C 621.96 70.5  623.5 72.04  623.5 74  C 623.5 75.96  621.96 77.5  620 77.5  " fill-rule="nonzero" fill="#797979" stroke="none" />
</svg>