<?xml version="1.0" encoding="utf-8"?>
<svg version="1.1" xmlns:xlink="http://www.w3.org/1999/xlink" width="14px" height="14px" viewBox="613 85  14 14" xmlns="http://www.w3.org/2000/svg">
  <path d="M 620 85  C 623.92 85  627 88.08  627 92  C 627 95.92  623.92 99  620 99  C 616.08 99  613 95.92  613 92  C 613 88.08  616.08 85  620 85  Z " fill-rule="nonzero" fill="#f7941d" stroke="none" />
  <path d="M 620 85.5  C 623.64 85.5  626.5 88.36  626.5 92  C 626.5 95.64  623.64 98.5  620 98.5  C 616.36 98.5  613.5 95.64  613.5 92  C 613.5 88.36  616.36 85.5  620 85.5  Z " stroke-width="1" stroke="#797979" fill="none" />
  <path d="M 620 95.5  C 618.04 95.5  616.5 93.96  616.5 92  C 616.5 90.04  618.04 88.5  620 88.5  C 621.96 88.5  623.5 90.04  623.5 92  C 623.5 93.96  621.96 95.5  620 95.5  " fill-rule="nonzero" fill="#797979" stroke="none" />
</svg>