<?xml version="1.0" encoding="utf-8"?>
<svg version="1.1" xmlns:xlink="http://www.w3.org/1999/xlink" width="13px" height="13px" viewBox="642 82  13 13" xmlns="http://www.w3.org/2000/svg">
  <path d="M 648.5 82  C 652.14 82  655 84.86  655 88.5  C 655 92.14  652.14 95  648.5 95  C 644.86 95  642 92.14  642 88.5  C 642 84.86  644.86 82  648.5 82  Z " fill-rule="nonzero" fill="#f7941d" stroke="none" />
  <path d="M 648.5 82.5  C 651.86 82.5  654.5 85.14  654.5 88.5  C 654.5 91.86  651.86 94.5  648.5 94.5  C 645.14 94.5  642.5 91.86  642.5 88.5  C 642.5 85.14  645.14 82.5  648.5 82.5  Z " stroke-width="1" stroke="#797979" fill="none" />
  <path d="M 648.5 91.75  C 646.68 91.75  645.25 90.32  645.25 88.5  C 645.25 86.68  646.68 85.25  648.5 85.25  C 650.32 85.25  651.75 86.68  651.75 88.5  C 651.75 90.32  650.32 91.75  648.5 91.75  " fill-rule="nonzero" fill="#797979" stroke="none" />
</svg>