<?xml version="1.0" encoding="utf-8"?>
<svg version="1.1" xmlns:xlink="http://www.w3.org/1999/xlink" width="14px" height="14px" viewBox="620 67  14 14" xmlns="http://www.w3.org/2000/svg">
  <path d="M 627 67  C 630.92 67  634 70.08  634 74  C 634 77.92  630.92 81  627 81  C 623.08 81  620 77.92  620 74  C 620 70.08  623.08 67  627 67  Z " fill-rule="nonzero" fill="#f7941d" stroke="none" />
  <path d="M 627 67.5  C 630.64 67.5  633.5 70.36  633.5 74  C 633.5 77.64  630.64 80.5  627 80.5  C 623.36 80.5  620.5 77.64  620.5 74  C 620.5 70.36  623.36 67.5  627 67.5  Z " stroke-width="1" stroke="#797979" fill="none" />
  <path d="M 627 77.5  C 625.04 77.5  623.5 75.96  623.5 74  C 623.5 72.04  625.04 70.5  627 70.5  C 628.96 70.5  630.5 72.04  630.5 74  C 630.5 75.96  628.96 77.5  627 77.5  " fill-rule="nonzero" fill="#797979" stroke="none" />
</svg>