<?xml version="1.0" encoding="utf-8"?>
<svg version="1.1" xmlns:xlink="http://www.w3.org/1999/xlink" width="14px" height="14px" viewBox="620 85  14 14" xmlns="http://www.w3.org/2000/svg">
  <path d="M 627 85  C 630.92 85  634 88.08  634 92  C 634 95.92  630.92 99  627 99  C 623.08 99  620 95.92  620 92  C 620 88.08  623.08 85  627 85  Z " fill-rule="nonzero" fill="#f0f0f0" stroke="none" />
  <path d="M 627 85.5  C 630.64 85.5  633.5 88.36  633.5 92  C 633.5 95.64  630.64 98.5  627 98.5  C 623.36 98.5  620.5 95.64  620.5 92  C 620.5 88.36  623.36 85.5  627 85.5  Z " stroke-width="1" stroke="#797979" fill="none" />
  <path d="M 627 95.5  C 625.04 95.5  623.5 93.96  623.5 92  C 623.5 90.04  625.04 88.5  627 88.5  C 628.96 88.5  630.5 90.04  630.5 92  C 630.5 93.96  628.96 95.5  627 95.5  " fill-rule="nonzero" fill="#797979" stroke="none" />
</svg>